# xmcd CD database file
#
# Track frame offsets:
#	150
#	29777
#	63630
#	86205
#	105795
#	145945
#	170372
#	194585
#	225232
#	253002
#	276415
#	299045
#
# Disc length: 4482 seconds
#
# Revision: 0
# Processed by: cddbd v1.5.1PL2 Copyright (c) Steve Scherf et al.
# Submitted via: CDex 1.51
#
DISCID=b811800c
DTITLE=Sune Spångberg Trio - Two Absent Friends
DYEAR=1997
DGENRE=Jazz
TTITLE0=En balland i advent till min far
TTITLE1=The pleasures of the ball
TTITLE2=Zo zey call one concentration
TTITLE3=Blues för Östersund
TTITLE4=Drottningholms ballad
TTITLE5=Helsinki tre hetska dygn
TTITLE6=Sittin' in the sun
TTITLE7=Sunday blues
TTITLE8=Congratulation
TTITLE9=Bro i soll
TTITLE10=Vinterdag med sol
TTITLE11=Vinterdag med sol 2
EXTD=YEAR: 1997
EXTT0=
EXTT1=
EXTT2=
EXTT3=
EXTT4=
EXTT5=
EXTT6=
EXTT7=
EXTT8=
EXTT9=
EXTT10=
EXTT11=
PLAYORDER=
